<svg width="40" height="40" viewBox="0 0 40 40" fill="none" xmlns="http://www.w3.org/2000/svg">
<path d="M13.75 21.0738L27.7996 33.4374C27.9621 33.5804 28.1591 33.6788 28.3711 33.7228C28.5831 33.7669 28.8029 33.7551 29.009 33.6887C29.2151 33.6222 29.4004 33.5034 29.5467 33.3438C29.693 33.1841 29.7954 32.9893 29.8438 32.7782L35.7209 7.13249C35.7717 6.91076 35.7611 6.67936 35.6901 6.46324C35.6191 6.24711 35.4905 6.05446 35.3181 5.90603C35.1457 5.7576 34.9361 5.65902 34.7118 5.62093C34.4876 5.58283 34.2572 5.60665 34.0454 5.68983L5.20843 17.0187C4.95711 17.1174 4.74452 17.2948 4.60246 17.5245C4.46041 17.7541 4.39653 18.0236 4.42039 18.2925C4.44424 18.5615 4.55455 18.8155 4.73481 19.0166C4.91507 19.2176 5.15558 19.3549 5.42035 19.4078L13.75 21.0738Z" stroke="black" stroke-width="2" stroke-linecap="round" stroke-linejoin="round"/>
<path d="M13.75 21.0738L35.0175 5.71387" stroke="black" stroke-width="2" stroke-linecap="round" stroke-linejoin="round"/>
<path d="M20.7667 27.2484L15.8839 32.1313C15.7091 32.3061 15.4863 32.4252 15.2439 32.4734C15.0014 32.5216 14.7501 32.4969 14.5216 32.4023C14.2932 32.3077 14.098 32.1474 13.9607 31.9419C13.8233 31.7363 13.75 31.4946 13.75 31.2474V21.0737" stroke="black" stroke-width="2" stroke-linecap="round" stroke-linejoin="round"/>
</svg>
