<svg width="40" height="40" viewBox="0 0 40 40" fill="none" xmlns="http://www.w3.org/2000/svg">
<path d="M20.6892 29.802L28.5698 34.7948C29.5771 35.433 30.8278 34.4838 30.5289 33.3079L28.252 24.3513C28.1879 24.1018 28.1955 23.8393 28.2739 23.594C28.3523 23.3487 28.4984 23.1304 28.6954 22.9644L35.7621 17.0826C36.6907 16.3098 36.2114 14.7688 35.0184 14.6913L25.7897 14.0924C25.5411 14.0746 25.3027 13.9866 25.1022 13.8386C24.9017 13.6906 24.7474 13.4887 24.6572 13.2564L21.2153 4.58871C21.1217 4.34213 20.9554 4.12984 20.7383 3.98003C20.5212 3.83023 20.2637 3.75 20 3.75C19.7363 3.75 19.4788 3.83023 19.2617 3.98003C19.0446 4.12984 18.8783 4.34213 18.7847 4.58871L15.3428 13.2564C15.2526 13.4887 15.0983 13.6906 14.8978 13.8386C14.6973 13.9866 14.4589 14.0746 14.2103 14.0924L4.98157 14.6913C3.78859 14.7688 3.30933 16.3098 4.23787 17.0826L11.3046 22.9644C11.5016 23.1304 11.6477 23.3487 11.7261 23.594C11.8045 23.8393 11.8121 24.1018 11.748 24.3513L9.63647 32.6576C9.27778 34.0686 10.7786 35.2076 11.9874 34.4418L19.3108 29.802C19.5167 29.6709 19.7558 29.6012 20 29.6012C20.2442 29.6012 20.4833 29.6709 20.6892 29.802V29.802Z" stroke="black" stroke-width="2" stroke-linecap="round" stroke-linejoin="round"/>
</svg>
